# xmcd
#
# Track frame offsets:
#	150
#	19384
#	35344
#	54605
#	72591
#	90232
#	107089
#	123543
#	143486
#	155175
#	174475
#	194314
#
# Disc length: 2824 seconds
#
# Revision: 1
# Processed by: cddbd v1.5.2PL0 Copyright (c) Steve Scherf et al.
# Submitted via: audiograbber 1.83.01
#
DISCID=a60b060c
DTITLE=Calexico - Algiers
DYEAR=2012
DGENRE=Country
TTITLE0=Epic
TTITLE1=Splitter
TTITLE2=Sinner In The Sea
TTITLE3=Fortune Teller
TTITLE4=Para
TTITLE5=Algiers
TTITLE6=Maybe On Monday
TTITLE7=Puerto
TTITLE8=Better And Better
TTITLE9=No Te Vayas
TTITLE10=Hush
TTITLE11=The Vanishing Mind
EXTD=
EXTT0=
EXTT1=
EXTT2=
EXTT3=
EXTT4=
EXTT5=
EXTT6=
EXTT7=
EXTT8=
EXTT9=
EXTT10=
EXTT11=
PLAYORDER=
